<?xml version="1.0" encoding="utf-8"?>
<!-- Generator: Adobe Illustrator 18.0.0, SVG Export Plug-In . SVG Version: 6.00 Build 0)  -->
<!DOCTYPE svg PUBLIC "-//W3C//DTD SVG 1.1//EN" "http://www.w3.org/Graphics/SVG/1.1/DTD/svg11.dtd">
<svg version="1.1" id="Layer_1" xmlns:sketch="http://www.bohemiancoding.com/sketch/ns"
	 xmlns="http://www.w3.org/2000/svg" xmlns:xlink="http://www.w3.org/1999/xlink" x="0px" y="0px" viewBox="0 0 370 704"
	 enable-background="new 0 0 370 704" xml:space="preserve">
<title>iphone</title>
<desc>Created with Sketch.</desc>
<g id="Page-1" sketch:type="MSPage">
	<g id="Artboard-6" transform="translate(-68.000000, -54.000000)" sketch:type="MSArtboardGroup">
		<g id="iphone" transform="translate(68.000000, 54.000000)" sketch:type="MSLayerGroup">
			<path id="Rectangle-451" sketch:type="MSShapeGroup" fill="#FFFFFF" d="M3,64C3,30.9,29.9,4,63,4h247c33.1,0,60,26.9,60,60v580
				c0,33.1-26.9,60-60,60H63c-33.1,0-60-26.9-60-60V64z M187,685c18.2,0,33-14.8,33-33s-14.8-33-33-33s-33,14.8-33,33
				S168.8,685,187,685z M187,50c5.5,0,10-4.5,10-10s-4.5-10-10-10s-10,4.5-10,10S181.5,50,187,50z"/>
			<rect id="Rectangle-457" x="19" y="105" sketch:type="MSShapeGroup" fill="#CFD8DD" width="335" height="496">
			</rect>
			<path id="Rectangle-452" sketch:type="MSShapeGroup" fill="#FFFFFF" d="M257,0h45c2.8,0,5,0.9,5,2l0,0c0,1.1-2.2,2-5,2h-45
				c-2.8,0-5-0.9-5-2l0,0C252,0.9,254.2,0,257,0z"/>
			<rect id="Rectangle-452_1_" y="105" sketch:type="MSShapeGroup" fill="#FFFFFF" width="3" height="35">
			</rect>
			<rect id="Rectangle-452_2_" y="156" sketch:type="MSShapeGroup" fill="#FFFFFF" width="3" height="34">
			</rect>
			<rect id="Rectangle-452_3_" y="206" sketch:type="MSShapeGroup" fill="#FFFFFF" width="3" height="35">
			</rect>
		</g>
	</g>
</g>
<path fill="#CFD8DD" d="M151.5,82c0-3.3,2.7-6,6-6h55c3.3,0,6,2.7,6,6c0,3.3-2.7,6-6,6h-55C154.2,88,151.5,85.3,151.5,82z"/>
</svg>
